<svg width="190" height="183" viewBox="0 0 190 183" fill="none" xmlns="http://www.w3.org/2000/svg">
<path d="M91.0081 134.958C89.664 133.601 89.664 131.399 91.0081 130.042L137.566 83.0182C138.91 81.6606 141.09 81.6606 142.434 83.0182L188.992 130.042C190.336 131.399 190.336 133.601 188.992 134.958L142.434 181.982C141.09 183.339 138.91 183.339 137.566 181.982L91.0081 134.958Z" fill="#454554"/>
<path d="M3.53554 129.574C1.58292 127.622 1.58292 124.456 3.53554 122.503L31.5033 94.5355C33.4559 92.5829 36.6217 92.5829 38.5743 94.5355L66.542 122.503C68.4947 124.456 68.4947 127.622 66.542 129.574L38.5743 157.542C36.6217 159.495 33.4559 159.495 31.5033 157.542L3.53554 129.574Z" fill="#20CF6C"/>
<path d="M8.73389 90.186C6.42204 87.8741 6.42204 84.1259 8.73389 81.814L88.814 1.73389C91.1259 -0.577964 94.8741 -0.577964 97.186 1.73389L177.266 81.814C179.578 84.1259 179.578 87.8741 177.266 90.186L97.186 170.266C94.8741 172.578 91.1259 172.578 88.814 170.266L8.73389 90.186Z" fill="#2E2E38"/>
<path d="M51.5355 164.387C49.5829 162.435 49.5829 159.269 51.5355 157.316L66.3164 142.536C68.269 140.583 71.4349 140.583 73.3875 142.536L88.1684 157.316C90.121 159.269 90.121 162.435 88.1684 164.387L73.3875 179.168C71.4349 181.121 68.269 181.121 66.3164 179.168L51.5355 164.387Z" fill="#009991"/>
<path d="M132.394 50H69.6057C64.3109 50 60 54.324 60 59.682V123.226C60 128.584 64.3109 132.908 69.6057 132.908H122.742L120.258 124.213L126.256 129.806L131.926 135.07L142 144V59.682C142 54.324 137.689 50 132.394 50Z" fill="url(#paint0_linear)"/>
<defs>
<linearGradient id="paint0_linear" x1="60" y1="55.875" x2="142.244" y2="135.995" gradientUnits="userSpaceOnUse">
<stop stop-color="#20CF6C"/>
<stop offset="1" stop-color="#009991"/>
</linearGradient>
</defs>
</svg>
