<svg width="326" height="326" viewBox="0 0 326 326" fill="none" xmlns="http://www.w3.org/2000/svg">
<rect y="162.635" width="230" height="230" rx="20" transform="rotate(-45 0 162.635)" fill="url(#paint0_linear)"/>
<path d="M87.01 145.86C94.51 145.86 100.27 147.66 104.29 151.26C108.31 154.8 110.32 160.17 110.32 167.37V195H97.18V188.97C94.54 193.47 89.62 195.72 82.42 195.72C78.7 195.72 75.46 195.09 72.7 193.83C70 192.57 67.93 190.83 66.49 188.61C65.05 186.39 64.33 183.87 64.33 181.05C64.33 176.55 66.01 173.01 69.37 170.43C72.79 167.85 78.04 166.56 85.12 166.56H96.28C96.28 163.5 95.35 161.16 93.49 159.54C91.63 157.86 88.84 157.02 85.12 157.02C82.54 157.02 79.99 157.44 77.47 158.28C75.01 159.06 72.91 160.14 71.17 161.52L66.13 151.71C68.77 149.85 71.92 148.41 75.58 147.39C79.3 146.37 83.11 145.86 87.01 145.86ZM85.93 186.27C88.33 186.27 90.46 185.73 92.32 184.65C94.18 183.51 95.5 181.86 96.28 179.7V174.75H86.65C80.89 174.75 78.01 176.64 78.01 180.42C78.01 182.22 78.7 183.66 80.08 184.74C81.52 185.76 83.47 186.27 85.93 186.27ZM146.954 195.72C141.794 195.72 137.144 194.67 133.004 192.57C128.924 190.41 125.714 187.44 123.374 183.66C121.094 179.88 119.954 175.59 119.954 170.79C119.954 165.99 121.094 161.7 123.374 157.92C125.714 154.14 128.924 151.2 133.004 149.1C137.144 146.94 141.794 145.86 146.954 145.86C152.054 145.86 156.494 146.94 160.274 149.1C164.114 151.2 166.904 154.23 168.644 158.19L157.754 164.04C155.234 159.6 151.604 157.38 146.864 157.38C143.204 157.38 140.174 158.58 137.774 160.98C135.374 163.38 134.174 166.65 134.174 170.79C134.174 174.93 135.374 178.2 137.774 180.6C140.174 183 143.204 184.2 146.864 184.2C151.664 184.2 155.294 181.98 157.754 177.54L168.644 183.48C166.904 187.32 164.114 190.32 160.274 192.48C156.494 194.64 152.054 195.72 146.954 195.72ZM238.738 145.86C244.798 145.86 249.598 147.66 253.138 151.26C256.738 154.8 258.538 160.14 258.538 167.28V195H244.498V169.44C244.498 165.6 243.688 162.75 242.068 160.89C240.508 158.97 238.258 158.01 235.318 158.01C232.018 158.01 229.408 159.09 227.488 161.25C225.568 163.35 224.608 166.5 224.608 170.7V195H210.568V169.44C210.568 161.82 207.508 158.01 201.388 158.01C198.148 158.01 195.568 159.09 193.648 161.25C191.728 163.35 190.768 166.5 190.768 170.7V195H176.728V146.58H190.138V152.16C191.938 150.12 194.128 148.56 196.708 147.48C199.348 146.4 202.228 145.86 205.348 145.86C208.768 145.86 211.858 146.55 214.618 147.93C217.378 149.25 219.598 151.2 221.278 153.78C223.258 151.26 225.748 149.31 228.748 147.93C231.808 146.55 235.138 145.86 238.738 145.86Z" fill="white"/>
<defs>
<linearGradient id="paint0_linear" x1="115" y1="162.635" x2="115" y2="392.635" gradientUnits="userSpaceOnUse">
<stop stop-color="#20CF6C"/>
<stop offset="1" stop-color="#009991"/>
</linearGradient>
</defs>
</svg>
