<svg width="142" height="142" viewBox="0 0 142 142" fill="none" xmlns="http://www.w3.org/2000/svg">
<rect y="70.7107" width="100" height="100" rx="15" transform="rotate(-45 0 70.7107)" fill="#FF6060"/>
<path d="M49.6 74.875H38.65C36.6345 74.875 35 76.4983 35 78.5V89.375C35 91.3767 36.6345 93 38.65 93H49.6C51.6155 93 53.25 91.3767 53.25 89.375V78.5C53.25 76.4983 51.6155 74.875 49.6 74.875ZM46.8625 65.8125H68.7625V71.25H74.2375V65.8125H96.1375V71.25H101.613V64.7261C101.613 62.328 99.6472 60.375 97.2314 60.375H74.2375V53.125H78.8C80.8155 53.125 82.45 51.5017 82.45 49.5V38.625C82.45 36.6233 80.8155 35 78.8 35H64.2C62.1845 35 60.55 36.6233 60.55 38.625V49.5C60.55 51.5017 62.1845 53.125 64.2 53.125H68.7625V60.375H45.7686C43.3528 60.375 41.3875 62.3268 41.3875 64.7261V71.25H46.8625V65.8125ZM76.975 74.875H66.025C64.0095 74.875 62.375 76.4983 62.375 78.5V89.375C62.375 91.3767 64.0095 93 66.025 93H76.975C78.9905 93 80.625 91.3767 80.625 89.375V78.5C80.625 76.4983 78.9905 74.875 76.975 74.875ZM104.35 74.875H93.4C91.3845 74.875 89.75 76.4983 89.75 78.5V89.375C89.75 91.3767 91.3845 93 93.4 93H104.35C106.365 93 108 91.3767 108 89.375V78.5C108 76.4983 106.365 74.875 104.35 74.875Z" fill="white"/>
</svg>
