<svg width="142" height="142" viewBox="0 0 142 142" fill="none" xmlns="http://www.w3.org/2000/svg">
<rect y="70.7107" width="100" height="100" rx="15" transform="rotate(-45 0 70.7107)" fill="#9720CF"/>
<path d="M106 57.3216V53.5C106 51.5673 104.433 50 102.5 50H39.5C37.5673 50 36 51.5673 36 53.5V57.3216C38.0344 58.0445 39.5 59.9673 39.5 62.25C39.5 64.5327 38.0344 66.4555 36 67.1784V78H106V67.1784C103.966 66.4555 102.5 64.5327 102.5 62.25C102.5 59.9673 103.966 58.0445 106 57.3216ZM60.5 71H53.5V57H60.5V71ZM74.5 71H67.5V57H74.5V71ZM88.5 71H81.5V57H88.5V71ZM36 92H43V89.083C43 88.1161 43.7831 87.333 44.75 87.333C45.7169 87.333 46.5 88.1161 46.5 89.083V92H60.5V89.083C60.5 88.1161 61.2831 87.333 62.25 87.333C63.2169 87.333 64 88.1161 64 89.083V92H78V89.083C78 88.1161 78.7831 87.333 79.75 87.333C80.7169 87.333 81.5 88.1161 81.5 89.083V92H95.5V89.083C95.5 88.1161 96.2831 87.333 97.25 87.333C98.2169 87.333 99 88.1161 99 89.083V92H106V81.5H36V92Z" fill="white"/>
</svg>
