<svg width="142" height="142" viewBox="0 0 142 142" fill="none" xmlns="http://www.w3.org/2000/svg">
<rect y="70.7107" width="100" height="100" rx="15" transform="rotate(-45 0 70.7107)" fill="#20A5CF"/>
<path d="M71.5 53.3438C72.8196 53.3438 74.1095 52.9525 75.2067 52.2193C76.3039 51.4862 77.1591 50.4442 77.664 49.2251C78.169 48.006 78.3011 46.6645 78.0437 45.3703C77.7863 44.076 77.1508 42.8872 76.2178 41.9541C75.2847 41.0211 74.0958 40.3856 72.8016 40.1282C71.5074 39.8708 70.1659 40.0029 68.9468 40.5079C67.7276 41.0128 66.6856 41.868 65.9525 42.9652C65.2194 44.0624 64.8281 45.3523 64.8281 46.6719C64.8281 48.4414 65.531 50.1384 66.7823 51.3896C68.0335 52.6408 69.7305 53.3438 71.5 53.3438ZM92.4689 93.375H50.5311C50.0256 93.375 49.5407 93.5758 49.1832 93.9333C48.8257 94.2908 48.6249 94.7757 48.6249 95.2813V99.0938C48.6249 99.5993 48.8257 100.084 49.1832 100.442C49.5407 100.799 50.0256 101 50.5311 101H92.4689C92.9744 101 93.4593 100.799 93.8168 100.442C94.1743 100.084 94.3751 99.5993 94.3751 99.0938V95.2813C94.3751 94.7757 94.1743 94.2908 93.8168 93.9333C93.4593 93.5758 92.9744 93.375 92.4689 93.375ZM101.151 61.9409L97.754 60.0442C96.8675 59.4485 95.7393 59.7511 95.0983 60.6018C94.4597 61.4566 93.593 62.1139 92.5976 62.4981C91.6021 62.8823 90.5185 62.9778 89.4713 62.7737C86.7143 62.2626 84.8438 59.6499 84.8438 56.8465C84.8438 56.4231 84.6756 56.017 84.3762 55.7176C84.0768 55.4182 83.6707 55.25 83.2473 55.25H78.6282C77.9134 55.25 77.245 55.7266 77.0961 56.4307C76.8257 57.7146 76.1221 58.8665 75.1032 59.6932C74.0843 60.5199 72.8121 60.9711 71.5 60.9711C70.1879 60.9711 68.9157 60.5199 67.8968 59.6932C66.8779 58.8665 66.1743 57.7146 65.9039 56.4307C65.755 55.7254 65.0914 55.25 64.3718 55.25H59.7527C59.3293 55.25 58.9232 55.4182 58.6238 55.7176C58.3244 56.017 58.1562 56.4231 58.1562 56.8465C58.1562 59.9072 55.8925 62.6546 52.8341 62.8619C51.8839 62.9289 50.932 62.7549 50.0669 62.3561C49.2017 61.9573 48.4512 61.3465 47.885 60.5804C47.256 59.7356 46.1301 59.4545 45.2532 60.0395L41.8493 61.9457C41.4626 62.2034 41.1833 62.5934 41.0639 63.0425C40.9446 63.4916 40.9934 63.9689 41.2012 64.3845L53.4191 89.5625H89.5809L101.799 64.3797C102.007 63.9641 102.055 63.4869 101.936 63.0377C101.817 62.5886 101.537 62.1986 101.151 61.9409Z" fill="white"/>
</svg>
