<svg width="193" height="190" viewBox="0 0 193 190" fill="none" xmlns="http://www.w3.org/2000/svg">
<rect x="53.7893" y="65.5" width="92.631" height="92.631" rx="15" transform="rotate(-45 53.7893 65.5)" fill="#FF7A00"/>
<path d="M148.846 82.6524L135.076 68.8838C132.36 66.1677 128.303 65.6386 125.034 67.2494L112.499 54.7154V47.4137L97.4471 36.1261L89.9213 43.6512L101.21 58.7014H108.512L121.048 71.2354C119.448 74.5041 119.966 78.5606 122.682 81.2767L136.452 95.0453C138.169 96.7619 140.944 96.7619 142.649 95.0453L148.846 88.8488C150.551 87.1321 150.551 84.3573 148.846 82.6524ZM128.926 62.5815C132.254 62.5815 135.382 63.8749 137.734 66.2265L140.015 68.5075C141.873 67.6962 143.637 66.5675 145.166 65.0389C149.528 60.6767 151.01 54.5391 149.622 48.9658C149.364 47.9076 148.035 47.5431 147.259 48.3191L138.51 57.067L130.526 55.7384L129.197 47.7547L137.946 39.0068C138.722 38.2307 138.345 36.9021 137.275 36.6317C131.701 35.256 125.563 36.7375 121.212 41.0879C117.861 44.439 116.285 48.86 116.368 53.2692L126.022 62.9225C126.974 62.6991 127.962 62.5815 128.926 62.5815ZM116.709 72.223L110.041 65.5563L92.1202 83.4872C89.1804 86.4267 89.1804 91.1886 92.1202 94.1281C95.06 97.0676 99.8224 97.0676 102.762 94.1281L117.297 79.5953C116.403 77.2555 116.132 74.704 116.709 72.223ZM97.4471 91.6237C95.8949 91.6237 94.6249 90.3538 94.6249 88.8018C94.6249 87.238 95.8831 85.9799 97.4471 85.9799C99.0111 85.9799 100.269 87.238 100.269 88.8018C100.269 90.3538 99.0111 91.6237 97.4471 91.6237Z" fill="white"/>
<rect x="-1.52588e-05" y="50.5" width="64.3467" height="64.3467" rx="11" transform="rotate(-45 -1.52588e-05 50.5)" fill="#FF6060"/>
<path d="M31.916 53.1796H24.87C23.5731 53.1796 22.5213 54.2241 22.5213 55.5122V62.5099C22.5213 63.7979 23.5731 64.8424 24.87 64.8424H31.916C33.2129 64.8424 34.2646 63.7979 34.2646 62.5099V55.5122C34.2646 54.2241 33.2129 53.1796 31.916 53.1796ZM30.1545 47.3482H44.2464V50.847H47.7694V47.3482H61.8613V50.847H65.3843V46.6491C65.3843 45.106 64.1197 43.8493 62.5652 43.8493H47.7694V39.1842H50.7052C52.0021 39.1842 53.0539 38.1396 53.0539 36.8516V29.8539C53.0539 28.5659 52.0021 27.5213 50.7052 27.5213H41.3106C40.0137 27.5213 38.9619 28.5659 38.9619 29.8539V36.8516C38.9619 38.1396 40.0137 39.1842 41.3106 39.1842H44.2464V43.8493H29.4506C27.8961 43.8493 26.6315 45.1053 26.6315 46.6491V50.847H30.1545V47.3482ZM49.5309 53.1796H42.4849C41.188 53.1796 40.1362 54.2241 40.1362 55.5122V62.5099C40.1362 63.7979 41.188 64.8424 42.4849 64.8424H49.5309C50.8278 64.8424 51.8795 63.7979 51.8795 62.5099V55.5122C51.8795 54.2241 50.8278 53.1796 49.5309 53.1796ZM67.1458 53.1796H60.0998C58.8029 53.1796 57.7512 54.2241 57.7512 55.5122V62.5099C57.7512 63.7979 58.8029 64.8424 60.0998 64.8424H67.1458C68.4427 64.8424 69.4944 63.7979 69.4944 62.5099V55.5122C69.4944 54.2241 68.4427 53.1796 67.1458 53.1796Z" fill="white"/>
<rect x="17.2893" y="137.711" width="73.1299" height="73.1299" rx="13" transform="rotate(-45 17.2893 137.711)" fill="#9720CF"/>
<path d="M94.807 127.919V125.125C94.807 123.711 93.6609 122.565 92.2475 122.565H46.1756C44.7623 122.565 43.6161 123.711 43.6161 125.125V127.919C45.1038 128.448 46.1756 129.854 46.1756 131.523C46.1756 133.193 45.1038 134.599 43.6161 135.128V143.041H94.807V135.128C93.3193 134.599 92.2475 133.193 92.2475 131.523C92.2475 129.854 93.3193 128.448 94.807 127.919ZM61.5329 137.922H56.4138V127.684H61.5329V137.922ZM71.7711 137.922H66.652V127.684H71.7711V137.922ZM82.0093 137.922H76.8902V127.684H82.0093V137.922ZM43.6161 153.28H48.7352V151.146C48.7352 150.439 49.3079 149.867 50.015 149.867C50.722 149.867 51.2947 150.439 51.2947 151.146V153.28H61.5329V151.146C61.5329 150.439 62.1056 149.867 62.8127 149.867C63.5198 149.867 64.0925 150.439 64.0925 151.146V153.28H74.3307V151.146C74.3307 150.439 74.9034 149.867 75.6104 149.867C76.3175 149.867 76.8902 150.439 76.8902 151.146V153.28H87.1284V151.146C87.1284 150.439 87.7011 149.867 88.4082 149.867C89.1153 149.867 89.688 150.439 89.688 151.146V153.28H94.807V145.601H43.6161V153.28Z" fill="white"/>
<rect x="119" y="123" width="52.3259" height="52.3259" rx="10" transform="rotate(-45 119 123)" fill="#20A5CF"/>
<path d="M156.413 113.913C157.104 113.913 157.778 113.708 158.353 113.324C158.927 112.941 159.374 112.395 159.638 111.757C159.903 111.12 159.972 110.418 159.837 109.74C159.702 109.063 159.37 108.441 158.882 107.953C158.393 107.465 157.771 107.132 157.094 106.997C156.417 106.863 155.715 106.932 155.077 107.196C154.439 107.46 153.894 107.908 153.51 108.482C153.127 109.056 152.922 109.731 152.922 110.421C152.922 111.347 153.29 112.235 153.944 112.89C154.599 113.545 155.487 113.913 156.413 113.913ZM167.385 134.859H145.441C145.176 134.859 144.923 134.964 144.736 135.151C144.549 135.339 144.443 135.592 144.443 135.857V137.852C144.443 138.116 144.549 138.37 144.736 138.557C144.923 138.744 145.176 138.849 145.441 138.849H167.385C167.65 138.849 167.903 138.744 168.09 138.557C168.278 138.37 168.383 138.116 168.383 137.852V135.857C168.383 135.592 168.278 135.339 168.09 135.151C167.903 134.964 167.65 134.859 167.385 134.859ZM171.928 118.411L170.151 117.419C169.687 117.107 169.096 117.265 168.761 117.71C168.427 118.158 167.973 118.502 167.453 118.703C166.932 118.904 166.365 118.954 165.817 118.847C164.374 118.579 163.395 117.212 163.395 115.745C163.395 115.524 163.307 115.311 163.151 115.155C162.994 114.998 162.781 114.91 162.56 114.91H160.143C159.769 114.91 159.419 115.159 159.341 115.528C159.2 116.2 158.832 116.802 158.298 117.235C157.765 117.668 157.1 117.904 156.413 117.904C155.726 117.904 155.061 117.668 154.528 117.235C153.994 116.802 153.626 116.2 153.485 115.528C153.407 115.159 153.06 114.91 152.683 114.91H150.266C150.045 114.91 149.832 114.998 149.675 115.155C149.519 115.311 149.431 115.524 149.431 115.745C149.431 117.347 148.246 118.785 146.646 118.893C146.149 118.928 145.651 118.837 145.198 118.628C144.745 118.42 144.353 118.1 144.056 117.699C143.727 117.257 143.138 117.11 142.679 117.416L140.898 118.414C140.696 118.548 140.55 118.753 140.487 118.988C140.425 119.223 140.45 119.472 140.559 119.69L146.952 132.864H165.874L172.267 119.687C172.376 119.47 172.401 119.22 172.339 118.985C172.277 118.75 172.13 118.546 171.928 118.411Z" fill="white"/>
</svg>
